<svg xmlns="http://www.w3.org/2000/svg" xml:space="preserve" style="fill-rule:evenodd;clip-rule:evenodd;stroke-linejoin:round;stroke-miterlimit:2" viewBox="0 0 200 200"><path d="M0 0h200v200H0z" style="fill:none"/><path d="M35.637-104.733C77.766-69.882 83.665-7.476 48.814 34.653a99.5 99.5 0 0 1-13.177 13.19L-89.268-105.815c35.862-28.709 88.114-29.354 124.905 1.082" style="fill:#28d1b4;fill-rule:nonzero" transform="rotate(-140.4 49.146 41.28)scale(1 -1)"/><path d="M68.151-116.56c46.418 4.339 84.687 41.133 89.238 89.249 5.148 54.433-34.806 102.734-89.238 107.882a99.4 99.4 0 0 1-20.322-.156z" style="fill:#0157ff;fill-rule:nonzero" transform="rotate(84.597 34.347 81.62)scale(1 -1)"/><path d="M0 1h1v4H0zM5 1h1v4H5z" style="fill:#fff" transform="matrix(22.33333 0 0 14.83333 34 55.5)"/><path d="M1 5h4v1H1z" style="fill:#fff" transform="translate(34 18)scale(22.33333)"/><path d="M1 0h4v1H1z" style="fill:#fff" transform="translate(34 48)scale(22.33333)"/></svg>